<svg width="40" height="40" viewBox="0 0 40 40" fill="none" xmlns="http://www.w3.org/2000/svg">
<path d="M21.0208 40C17.6453 40 14.6509 39.5557 12.0376 38.6672C9.43514 37.7891 7.24105 36.4929 5.45529 34.7785C3.66952 33.0746 2.31387 30.9839 1.38832 28.5065C0.462774 26.029 0 23.2014 0 20.0235C0 16.9293 0.468218 14.1487 1.40465 11.6817C2.34109 9.21469 3.70219 7.11355 5.48795 5.37828C7.28461 3.63256 9.46781 2.29975 12.0376 1.37985C14.6073 0.45995 17.5255 0 20.7922 0C23.9172 0 26.6721 0.470404 29.0568 1.41121C31.4414 2.35202 33.4449 3.64302 35.0674 5.2842C36.7007 6.92539 37.9311 8.807 38.7587 10.929C39.5862 13.0511 40 15.2933 40 17.6558C40 19.3075 39.8911 20.9225 39.6733 22.501C39.4556 24.069 39.0527 25.4907 38.4647 26.766C37.8876 28.0308 37.0491 29.0448 35.9494 29.8079C34.8605 30.5606 33.4449 30.9526 31.7027 30.9839C30.7772 31.0153 29.8789 30.9108 29.0078 30.6703C28.1367 30.4299 27.3962 30.0431 26.7864 29.51C26.1767 28.9664 25.8065 28.2765 25.6758 27.4402H25.4798C25.2185 28.057 24.7829 28.6319 24.1731 29.165C23.5634 29.6877 22.7848 30.1058 21.8375 30.4194C20.901 30.7226 19.8122 30.848 18.5708 30.7958C17.1989 30.7435 15.963 30.4456 14.8632 29.902C13.7634 29.3584 12.8216 28.6058 12.0376 27.6441C11.2645 26.6823 10.671 25.5429 10.2572 24.2258C9.84347 22.9087 9.63659 21.4452 9.63659 19.8354C9.63659 18.2883 9.8707 16.9032 10.3389 15.6801C10.8071 14.4466 11.4441 13.3856 12.2499 12.4971C13.0666 11.5981 14.003 10.8872 15.0592 10.3646C16.1154 9.84189 17.2315 9.51261 18.4075 9.37672C19.5508 9.25128 20.6016 9.28264 21.5598 9.4708C22.518 9.65896 23.3129 9.94643 23.9445 10.3332C24.5869 10.72 24.9898 11.1433 25.1531 11.6033H25.3655V9.84712H29.3834V24.3983C29.3834 25.2241 29.6066 25.9245 30.0531 26.4994C30.5104 27.0744 31.1583 27.3618 31.9967 27.3618C32.9876 27.3618 33.7607 27.0116 34.3161 26.3113C34.8823 25.6109 35.2797 24.5342 35.5084 23.0811C35.7479 21.6281 35.8677 19.7674 35.8677 17.499C35.8677 15.9101 35.6445 14.4153 35.198 13.0145C34.7625 11.6033 34.1146 10.328 33.2544 9.18855C32.4051 8.03868 31.3597 7.05083 30.1184 6.22501C28.8771 5.39919 27.4616 4.76153 25.8718 4.31203C24.2929 3.86254 22.5453 3.63779 20.6288 3.63779C18.0264 3.63779 15.7125 4.02457 13.6872 4.79812C11.6619 5.56122 9.95236 6.66405 8.5586 8.10662C7.17572 9.5492 6.12495 11.2792 5.40629 13.2967C4.69852 15.3038 4.34463 17.5565 4.34463 20.0549C4.34463 22.6578 4.70941 24.968 5.43895 26.9855C6.1685 28.9926 7.2465 30.686 8.67293 32.0659C10.0994 33.4457 11.8633 34.4911 13.9649 35.2019C16.0664 35.9232 18.4892 36.2838 21.2332 36.2838C22.4527 36.2838 23.6505 36.1793 24.8265 35.9702C26.0025 35.7716 27.0478 35.5416 27.9624 35.2803C28.888 35.0294 29.5794 34.8256 30.0367 34.6688L31.1801 38.1027C30.505 38.4059 29.6066 38.7038 28.4851 38.9965C27.3744 39.2892 26.1658 39.5296 24.8591 39.7178C23.5634 39.9059 22.2839 40 21.0208 40ZM19.5182 26.9541C20.9337 26.9541 22.0716 26.6823 22.9318 26.1388C23.8029 25.5952 24.429 24.7851 24.8101 23.7084C25.2021 22.6212 25.3981 21.2623 25.3981 19.6315C25.3872 18.0426 25.1749 16.7777 24.7611 15.8369C24.3582 14.8857 23.7267 14.2062 22.8665 13.7985C22.0172 13.3804 20.9228 13.1713 19.5835 13.1713C18.3531 13.1713 17.3023 13.4588 16.4312 14.0337C15.571 14.6087 14.9122 15.3874 14.4549 16.3701C14.0084 17.3527 13.7798 18.4451 13.7689 19.6472C13.7798 20.9121 13.9649 22.1038 14.3242 23.2223C14.6944 24.3303 15.2933 25.2293 16.1209 25.9192C16.9593 26.6092 18.0917 26.9541 19.5182 26.9541Z" fill="black"/>
</svg>
