<svg xmlns="http://www.w3.org/2000/svg" width="55" height="23" fill="none"><path fill="#000" d="M.596 10V.2h1.036V10H.596ZM4.82 10V.2h.855l6.762 8.512h-.448V.2h1.022V10h-.854L5.409 1.488h.448V10H4.82ZM21.941 10.672V10h7v.672h-7ZM.596 22v-9.8h4.228c1.092 0 1.937.22 2.534.658.607.439.91 1.06.91 1.862 0 .532-.126.98-.378 1.344-.243.364-.579.64-1.008.826-.42.187-.882.28-1.386.28l.238-.336c.625 0 1.162.098 1.61.294.457.187.812.471 1.064.854.252.373.378.84.378 1.4 0 .83-.308 1.475-.924 1.932-.607.457-1.526.686-2.758.686H.596Zm1.036-.854H5.09c.859 0 1.517-.145 1.974-.434.457-.299.686-.77.686-1.414 0-.635-.229-1.097-.686-1.386-.457-.299-1.115-.448-1.974-.448H1.52v-.854h3.234c.784 0 1.39-.15 1.82-.448.439-.299.658-.742.658-1.33 0-.597-.22-1.04-.658-1.33-.43-.299-1.036-.448-1.82-.448H1.632v8.092ZM11.15 22v-9.8h3.669c.83 0 1.544.135 2.142.406.597.261 1.054.644 1.372 1.148.326.495.49 1.097.49 1.806 0 .69-.164 1.288-.49 1.792-.318.495-.775.877-1.372 1.148-.598.261-1.312.392-2.142.392h-3.094l.462-.476V22H11.15Zm6.693 0-2.52-3.556h1.12L18.977 22h-1.134Zm-5.656-3.5-.462-.49h3.066c.98 0 1.722-.215 2.226-.644.513-.43.77-1.031.77-1.806 0-.784-.257-1.39-.77-1.82-.504-.43-1.246-.644-2.226-.644h-3.066l.462-.49V18.5ZM25.552 22.084a5.714 5.714 0 0 1-2.058-.364 5.08 5.08 0 0 1-1.638-1.05 5.116 5.116 0 0 1-1.078-1.582A5.132 5.132 0 0 1 20.4 17.1c0-.719.126-1.377.378-1.974a4.906 4.906 0 0 1 1.078-1.582 4.787 4.787 0 0 1 1.638-1.05 5.456 5.456 0 0 1 2.058-.378c.737 0 1.419.126 2.044.378a4.745 4.745 0 0 1 1.624 1.036 4.63 4.63 0 0 1 1.078 1.582c.261.607.392 1.27.392 1.988 0 .719-.13 1.381-.392 1.988a4.63 4.63 0 0 1-1.078 1.582 4.921 4.921 0 0 1-1.624 1.05 5.602 5.602 0 0 1-2.044.364Zm0-.924a4.37 4.37 0 0 0 1.624-.294c.504-.205.938-.49 1.302-.854a4.02 4.02 0 0 0 .868-1.288 4.196 4.196 0 0 0 .308-1.624c0-.588-.103-1.125-.308-1.61a3.826 3.826 0 0 0-.868-1.288 3.633 3.633 0 0 0-1.302-.854 4.196 4.196 0 0 0-1.624-.308 4.3 4.3 0 0 0-1.638.308c-.504.196-.943.48-1.316.854a4.12 4.12 0 0 0-.868 1.288 4.09 4.09 0 0 0-.308 1.61c0 .579.102 1.115.308 1.61.215.495.504.929.868 1.302.373.364.812.649 1.316.854a4.48 4.48 0 0 0 1.638.294ZM34.958 22l-3.304-9.8h1.064l3.094 9.226h-.532l3.192-9.226h.952l3.15 9.226h-.504l3.122-9.226h.994L42.882 22H41.79l-3.01-8.75h.28L36.036 22h-1.078ZM50.788 22.084a6.357 6.357 0 0 1-2.1-.35c-.663-.243-1.177-.55-1.54-.924l.405-.798c.346.336.808.62 1.387.854a5.147 5.147 0 0 0 1.848.336c.616 0 1.115-.075 1.498-.224.392-.159.676-.369.853-.63.187-.261.28-.55.28-.868 0-.383-.111-.69-.335-.924a2.141 2.141 0 0 0-.855-.546 8.746 8.746 0 0 0-1.175-.364c-.43-.103-.86-.21-1.288-.322a5.865 5.865 0 0 1-1.19-.476 2.563 2.563 0 0 1-.868-.77c-.215-.327-.322-.751-.322-1.274 0-.485.125-.929.377-1.33.262-.41.659-.737 1.19-.98.532-.252 1.214-.378 2.044-.378.551 0 1.097.08 1.639.238.54.15 1.008.36 1.4.63l-.35.826a4.61 4.61 0 0 0-1.344-.616 5.026 5.026 0 0 0-1.358-.196c-.589 0-1.074.08-1.456.238-.383.159-.668.373-.855.644-.177.261-.266.56-.266.896 0 .383.108.69.323.924.224.233.513.415.867.546.364.13.761.247 1.19.35.43.103.855.215 1.275.336.429.121.82.28 1.175.476.364.187.654.439.868.756.225.317.337.733.337 1.246 0 .476-.131.92-.392 1.33-.262.401-.663.728-1.204.98-.532.243-1.218.364-2.058.364Z"/></svg>