<svg width="295" height="120" viewBox="0 0 295 120" fill="none" xmlns="http://www.w3.org/2000/svg">
<mask id="path-1-outside-1_162_16" maskUnits="userSpaceOnUse" x="0" y="0" width="295" height="120" fill="black">
<rect fill="white" width="295" height="120"/>
<path d="M1 52.6786V1H12.9359V52.6786H1Z"/>
<path d="M25.1758 52.6786V1H35.0488L65.4781 38.2086H60.6889V1H72.4775V52.6786H62.6783L32.1753 15.47H36.9644V52.6786H25.1758Z"/>
<path d="M115.791 52.6786V46.0342H152.631V52.6786H115.791Z"/>
<path d="M1.00002 118.114V66.4351H26.1981C32.6819 66.4351 37.5446 67.6655 40.7865 70.1264C44.0775 72.5873 45.723 75.8356 45.723 79.8715C45.723 82.5785 45.0599 84.9409 43.7337 86.9588C42.4074 88.9276 40.59 90.4533 38.2814 91.5361C35.9728 92.6189 33.3204 93.1603 30.3241 93.1603L31.724 90.1334C34.9659 90.1334 37.8394 90.6748 40.3444 91.7576C42.8495 92.7912 44.7897 94.3415 46.1651 96.4086C47.5895 98.4758 48.3017 101.011 48.3017 104.013C48.3017 108.442 46.558 111.912 43.0705 114.422C39.5831 116.883 34.4501 118.114 27.6717 118.114H1.00002ZM12.8623 109.107H26.7876C29.8821 109.107 32.2152 108.615 33.787 107.63C35.408 106.597 36.2184 104.973 36.2184 102.758C36.2184 100.592 35.408 98.9926 33.787 97.959C32.2152 96.8762 29.8821 96.3348 26.7876 96.3348H11.9781V87.6233H24.7246C27.6226 87.6233 29.8329 87.1311 31.3556 86.1468C32.9274 85.1132 33.7134 83.5628 33.7134 81.4957C33.7134 79.4778 32.9274 77.9766 31.3556 76.9922C29.8329 75.9587 27.6226 75.4419 24.7246 75.4419H12.8623V109.107Z"/>
<path d="M57.3383 118.114V66.4351H79.6629C84.2801 66.4351 88.2588 67.1979 91.5989 68.7237C94.939 70.2002 97.5178 72.3412 99.3352 75.1466C101.153 77.952 102.061 81.2988 102.061 85.187C102.061 89.026 101.153 92.3482 99.3352 95.1536C97.5178 97.9098 94.939 100.026 91.5989 101.503C88.2588 102.979 84.2801 103.717 79.6629 103.717H63.9694L69.2743 98.4758V118.114H57.3383ZM90.1253 118.114L77.2316 99.3617H89.978L103.019 118.114H90.1253ZM69.2743 99.8047L63.9694 94.1939H78.9998C82.6838 94.1939 85.4344 93.4064 87.2519 91.8314C89.0693 90.2072 89.978 87.9924 89.978 85.187C89.978 82.3324 89.0693 80.1176 87.2519 78.5426C85.4344 76.9677 82.6838 76.1802 78.9998 76.1802H63.9694L69.2743 70.4955V99.8047Z"/>
<path d="M136.569 119C132.492 119 128.71 118.335 125.222 117.006C121.784 115.677 118.788 113.807 116.233 111.395C113.728 108.984 111.764 106.154 110.339 102.905C108.964 99.657 108.276 96.1134 108.276 92.2744C108.276 88.4354 108.964 84.8917 110.339 81.6433C111.764 78.395 113.753 75.5649 116.307 73.1533C118.861 70.7416 121.858 68.8713 125.296 67.5424C128.734 66.2136 132.467 65.5491 136.495 65.5491C140.572 65.5491 144.305 66.2136 147.694 67.5424C151.133 68.8713 154.104 70.7416 156.609 73.1533C159.164 75.5649 161.153 78.395 162.577 81.6433C164.002 84.8425 164.714 88.3862 164.714 92.2744C164.714 96.1134 164.002 99.6816 162.577 102.979C161.153 106.228 159.164 109.058 156.609 111.469C154.104 113.832 151.133 115.677 147.694 117.006C144.305 118.335 140.597 119 136.569 119ZM136.495 108.812C138.804 108.812 140.916 108.418 142.831 107.63C144.796 106.843 146.515 105.711 147.989 104.234C149.463 102.758 150.592 101.011 151.378 98.9926C152.213 96.9747 152.631 94.7353 152.631 92.2744C152.631 89.8135 152.213 87.5741 151.378 85.5561C150.592 83.5382 149.463 81.791 147.989 80.3145C146.565 78.8379 144.87 77.7059 142.905 76.9184C140.94 76.131 138.804 75.7372 136.495 75.7372C134.187 75.7372 132.05 76.131 130.085 76.9184C128.169 77.7059 126.475 78.8379 125.001 80.3145C123.528 81.791 122.373 83.5382 121.538 85.5561C120.752 87.5741 120.359 89.8135 120.359 92.2744C120.359 94.686 120.752 96.9254 121.538 98.9926C122.373 101.011 123.503 102.758 124.928 104.234C126.401 105.711 128.12 106.843 130.085 107.63C132.05 108.418 134.187 108.812 136.495 108.812Z"/>
<path d="M182.934 118.114L166.062 66.4351H178.44L193.102 112.208H186.913L202.238 66.4351H213.29L228.025 112.208H222.057L237.088 66.4351H248.508L231.636 118.114H218.816L205.774 77.952H209.164L195.754 118.114H182.934Z"/>
<path d="M272.117 119C267.991 119 264.037 118.458 260.255 117.375C256.473 116.243 253.428 114.791 251.119 113.02L255.171 104.013C257.382 105.588 259.985 106.892 262.981 107.926C266.027 108.91 269.097 109.402 272.191 109.402C274.549 109.402 276.44 109.181 277.864 108.738C279.338 108.246 280.419 107.581 281.106 106.744C281.794 105.908 282.138 104.948 282.138 103.865C282.138 102.487 281.597 101.404 280.517 100.617C279.436 99.7801 278.012 99.1156 276.243 98.6234C274.475 98.082 272.51 97.5899 270.349 97.1469C268.237 96.6547 266.1 96.0641 263.939 95.3751C261.827 94.686 259.887 93.8001 258.119 92.7173C256.35 91.6345 254.901 90.2072 253.771 88.4354C252.691 86.6635 252.15 84.3995 252.15 81.6433C252.15 78.6903 252.936 76.0079 254.508 73.5962C256.129 71.1353 258.536 69.1912 261.729 67.7639C264.971 66.2874 269.023 65.5491 273.886 65.5491C277.128 65.5491 280.32 65.9429 283.464 66.7304C286.608 67.4686 289.383 68.6006 291.79 70.1264L288.106 79.2071C285.699 77.829 283.292 76.82 280.885 76.1802C278.478 75.4911 276.121 75.1466 273.812 75.1466C271.503 75.1466 269.612 75.4173 268.139 75.9587C266.665 76.5001 265.609 77.2137 264.971 78.0997C264.332 78.9364 264.013 79.9207 264.013 81.0527C264.013 82.3816 264.553 83.4644 265.634 84.3011C266.714 85.0886 268.139 85.7284 269.907 86.2206C271.675 86.7128 273.616 87.2049 275.728 87.6971C277.889 88.1893 280.026 88.7553 282.138 89.3951C284.299 90.035 286.264 90.8963 288.032 91.9791C289.8 93.0619 291.225 94.4891 292.305 96.261C293.435 98.0328 294 100.272 294 102.979C294 105.883 293.19 108.541 291.569 110.952C289.948 113.364 287.516 115.308 284.274 116.785C281.082 118.261 277.029 119 272.117 119Z"/>
</mask>
<path d="M1 52.6786V1H12.9359V52.6786H1Z" stroke="black" stroke-width="2" mask="url(#path-1-outside-1_162_16)"/>
<path d="M25.1758 52.6786V1H35.0488L65.4781 38.2086H60.6889V1H72.4775V52.6786H62.6783L32.1753 15.47H36.9644V52.6786H25.1758Z" stroke="black" stroke-width="2" mask="url(#path-1-outside-1_162_16)"/>
<path d="M115.791 52.6786V46.0342H152.631V52.6786H115.791Z" stroke="black" stroke-width="2" mask="url(#path-1-outside-1_162_16)"/>
<path d="M1.00002 118.114V66.4351H26.1981C32.6819 66.4351 37.5446 67.6655 40.7865 70.1264C44.0775 72.5873 45.723 75.8356 45.723 79.8715C45.723 82.5785 45.0599 84.9409 43.7337 86.9588C42.4074 88.9276 40.59 90.4533 38.2814 91.5361C35.9728 92.6189 33.3204 93.1603 30.3241 93.1603L31.724 90.1334C34.9659 90.1334 37.8394 90.6748 40.3444 91.7576C42.8495 92.7912 44.7897 94.3415 46.1651 96.4086C47.5895 98.4758 48.3017 101.011 48.3017 104.013C48.3017 108.442 46.558 111.912 43.0705 114.422C39.5831 116.883 34.4501 118.114 27.6717 118.114H1.00002ZM12.8623 109.107H26.7876C29.8821 109.107 32.2152 108.615 33.787 107.63C35.408 106.597 36.2184 104.973 36.2184 102.758C36.2184 100.592 35.408 98.9926 33.787 97.959C32.2152 96.8762 29.8821 96.3348 26.7876 96.3348H11.9781V87.6233H24.7246C27.6226 87.6233 29.8329 87.1311 31.3556 86.1468C32.9274 85.1132 33.7134 83.5628 33.7134 81.4957C33.7134 79.4778 32.9274 77.9766 31.3556 76.9922C29.8329 75.9587 27.6226 75.4419 24.7246 75.4419H12.8623V109.107Z" stroke="black" stroke-width="2" mask="url(#path-1-outside-1_162_16)"/>
<path d="M57.3383 118.114V66.4351H79.6629C84.2801 66.4351 88.2588 67.1979 91.5989 68.7237C94.939 70.2002 97.5178 72.3412 99.3352 75.1466C101.153 77.952 102.061 81.2988 102.061 85.187C102.061 89.026 101.153 92.3482 99.3352 95.1536C97.5178 97.9098 94.939 100.026 91.5989 101.503C88.2588 102.979 84.2801 103.717 79.6629 103.717H63.9694L69.2743 98.4758V118.114H57.3383ZM90.1253 118.114L77.2316 99.3617H89.978L103.019 118.114H90.1253ZM69.2743 99.8047L63.9694 94.1939H78.9998C82.6838 94.1939 85.4344 93.4064 87.2519 91.8314C89.0693 90.2072 89.978 87.9924 89.978 85.187C89.978 82.3324 89.0693 80.1176 87.2519 78.5426C85.4344 76.9677 82.6838 76.1802 78.9998 76.1802H63.9694L69.2743 70.4955V99.8047Z" stroke="black" stroke-width="2" mask="url(#path-1-outside-1_162_16)"/>
<path d="M136.569 119C132.492 119 128.71 118.335 125.222 117.006C121.784 115.677 118.788 113.807 116.233 111.395C113.728 108.984 111.764 106.154 110.339 102.905C108.964 99.657 108.276 96.1134 108.276 92.2744C108.276 88.4354 108.964 84.8917 110.339 81.6433C111.764 78.395 113.753 75.5649 116.307 73.1533C118.861 70.7416 121.858 68.8713 125.296 67.5424C128.734 66.2136 132.467 65.5491 136.495 65.5491C140.572 65.5491 144.305 66.2136 147.694 67.5424C151.133 68.8713 154.104 70.7416 156.609 73.1533C159.164 75.5649 161.153 78.395 162.577 81.6433C164.002 84.8425 164.714 88.3862 164.714 92.2744C164.714 96.1134 164.002 99.6816 162.577 102.979C161.153 106.228 159.164 109.058 156.609 111.469C154.104 113.832 151.133 115.677 147.694 117.006C144.305 118.335 140.597 119 136.569 119ZM136.495 108.812C138.804 108.812 140.916 108.418 142.831 107.63C144.796 106.843 146.515 105.711 147.989 104.234C149.463 102.758 150.592 101.011 151.378 98.9926C152.213 96.9747 152.631 94.7353 152.631 92.2744C152.631 89.8135 152.213 87.5741 151.378 85.5561C150.592 83.5382 149.463 81.791 147.989 80.3145C146.565 78.8379 144.87 77.7059 142.905 76.9184C140.94 76.131 138.804 75.7372 136.495 75.7372C134.187 75.7372 132.05 76.131 130.085 76.9184C128.169 77.7059 126.475 78.8379 125.001 80.3145C123.528 81.791 122.373 83.5382 121.538 85.5561C120.752 87.5741 120.359 89.8135 120.359 92.2744C120.359 94.686 120.752 96.9254 121.538 98.9926C122.373 101.011 123.503 102.758 124.928 104.234C126.401 105.711 128.12 106.843 130.085 107.63C132.05 108.418 134.187 108.812 136.495 108.812Z" stroke="black" stroke-width="2" mask="url(#path-1-outside-1_162_16)"/>
<path d="M182.934 118.114L166.062 66.4351H178.44L193.102 112.208H186.913L202.238 66.4351H213.29L228.025 112.208H222.057L237.088 66.4351H248.508L231.636 118.114H218.816L205.774 77.952H209.164L195.754 118.114H182.934Z" stroke="black" stroke-width="2" mask="url(#path-1-outside-1_162_16)"/>
<path d="M272.117 119C267.991 119 264.037 118.458 260.255 117.375C256.473 116.243 253.428 114.791 251.119 113.02L255.171 104.013C257.382 105.588 259.985 106.892 262.981 107.926C266.027 108.91 269.097 109.402 272.191 109.402C274.549 109.402 276.44 109.181 277.864 108.738C279.338 108.246 280.419 107.581 281.106 106.744C281.794 105.908 282.138 104.948 282.138 103.865C282.138 102.487 281.597 101.404 280.517 100.617C279.436 99.7801 278.012 99.1156 276.243 98.6234C274.475 98.082 272.51 97.5899 270.349 97.1469C268.237 96.6547 266.1 96.0641 263.939 95.3751C261.827 94.686 259.887 93.8001 258.119 92.7173C256.35 91.6345 254.901 90.2072 253.771 88.4354C252.691 86.6635 252.15 84.3995 252.15 81.6433C252.15 78.6903 252.936 76.0079 254.508 73.5962C256.129 71.1353 258.536 69.1912 261.729 67.7639C264.971 66.2874 269.023 65.5491 273.886 65.5491C277.128 65.5491 280.32 65.9429 283.464 66.7304C286.608 67.4686 289.383 68.6006 291.79 70.1264L288.106 79.2071C285.699 77.829 283.292 76.82 280.885 76.1802C278.478 75.4911 276.121 75.1466 273.812 75.1466C271.503 75.1466 269.612 75.4173 268.139 75.9587C266.665 76.5001 265.609 77.2137 264.971 78.0997C264.332 78.9364 264.013 79.9207 264.013 81.0527C264.013 82.3816 264.553 83.4644 265.634 84.3011C266.714 85.0886 268.139 85.7284 269.907 86.2206C271.675 86.7128 273.616 87.2049 275.728 87.6971C277.889 88.1893 280.026 88.7553 282.138 89.3951C284.299 90.035 286.264 90.8963 288.032 91.9791C289.8 93.0619 291.225 94.4891 292.305 96.261C293.435 98.0328 294 100.272 294 102.979C294 105.883 293.19 108.541 291.569 110.952C289.948 113.364 287.516 115.308 284.274 116.785C281.082 118.261 277.029 119 272.117 119Z" stroke="black" stroke-width="2" mask="url(#path-1-outside-1_162_16)"/>
</svg>
