<svg width="507" height="730" viewBox="0 0 507 730" fill="none" xmlns="http://www.w3.org/2000/svg">
<path d="M223.857 497.913C223.857 471.331 228.286 448.156 237.145 428.389C246.004 408.623 256.907 390.901 269.855 375.224C283.484 359.547 298.135 345.233 313.809 332.283C329.482 318.651 344.133 305.359 357.762 292.409C371.391 278.777 382.294 264.463 390.472 249.468C399.331 234.472 403.76 217.091 403.76 197.325C403.76 164.608 390.813 138.025 364.917 117.577C339.022 97.1288 303.246 86.9047 257.589 86.9047C216.702 86.9047 181.266 93.7208 151.282 107.353C121.298 120.985 95.744 141.092 74.619 167.675L0 114.51C28.621 78.3847 65.0786 50.4388 109.373 30.6722C153.667 10.2241 205.458 0 264.744 0C313.808 0 356.399 7.49765 392.516 22.493C428.633 36.8067 456.573 57.5957 476.335 84.8599C496.778 111.443 507 143.819 507 181.989C507 210.616 502.571 235.154 493.712 255.602C484.853 276.05 473.609 294.113 459.98 309.79C446.351 325.467 431.7 340.121 416.026 353.753C401.034 367.386 386.724 381.018 373.095 394.65C359.466 408.282 348.222 423.277 339.363 439.636C330.504 455.994 326.075 475.42 326.075 497.913H223.857ZM275.988 730C256.907 730 240.893 723.525 227.946 710.574C215.679 697.624 209.546 682.288 209.546 664.566C209.546 645.481 215.679 629.804 227.946 617.535C240.893 605.266 256.907 599.132 275.988 599.132C295.069 599.132 310.742 605.266 323.008 617.535C335.274 629.804 341.407 645.481 341.407 664.566C341.407 682.288 335.274 697.624 323.008 710.574C310.742 723.525 295.069 730 275.988 730Z" fill="black" fill-opacity="0.07"/>
</svg>
